<?xml version="1.0" encoding="UTF-8" standalone="no"?>
<!-- Created with Inkscape (http://www.inkscape.org/) -->

<svg
   width="210mm"
   height="297mm"
   viewBox="0 0 210 297"
   version="1.1"
   id="svg1"
   xmlns="http://www.w3.org/2000/svg"
   xmlns:svg="http://www.w3.org/2000/svg">
  <defs
     id="defs1" />
  <g
     id="layer1">
    <path
       style="fill:none;stroke:#000000;stroke-width:0.264999;stroke-linejoin:miter;stroke-dasharray:none;stroke-opacity:1;paint-order:normal"
       d="m 11.268982,52.499205 c -2.2654629,-0.673516 -1.204165,-2.979796 2.081775,-2.632834 6.503607,0.686716 10.551746,3.469626 16.001099,1.591945"
       id="path12" />
    <path
       style="fill:none;stroke:#000000;stroke-width:0.265;stroke-linejoin:miter;stroke-dasharray:none;stroke-opacity:1;paint-order:normal"
       d="m 20.065504,52.091012 c 1.193313,4.824873 2.808863,13.716326 -1.734814,13.531544 -2.867174,-0.116602 -3.10992,-3.877817 -0.285733,-3.877817"
       id="path11" />
    <path
       style="fill:none;stroke:#000000;stroke-width:0.264999;stroke-dasharray:none;stroke-opacity:1"
       d="m 22.738713,58.474525 c -1.51165,9.290961 6.575777,8.728636 5.490173,0.07143"
       id="path8-7" />
    <path
       style="fill:none;stroke:#000000;stroke-width:0.264999;stroke-dasharray:none;stroke-opacity:1"
       d="m 29.079978,61.710129 c 0.09207,5.793495 6.186864,4.068957 5.248244,-0.250737 -0.93862,-4.319694 -5.323564,-4.488764 -5.248244,0.250737 z"
       id="path4" />
    <path
       style="fill:none;stroke:#000000;stroke-width:0.264999;stroke-dasharray:none;stroke-opacity:1"
       d="m 35.506893,50.438938 c 0.32476,5.125181 -0.214061,9.819781 -0.09474,14.747799 0,0 -0.388659,-7.381915 3.357943,-6.961859 3.746602,0.420056 0.362859,9.254481 3.150118,6.998971"
       id="path5" />
    <path
       style="fill:none;stroke:#000000;stroke-width:0.264999;stroke-dasharray:none;stroke-opacity:1"
       d="m 43.000884,58.299636 c -0.298021,1.723998 -1.490205,6.55034 0.72509,7.15507"
       id="path6" />
    <circle
       style="fill:none;stroke:#000000;stroke-width:0.164;stroke-linejoin:miter;stroke-dasharray:none;stroke-opacity:1;paint-order:normal"
       id="path10"
       cx="43.090439"
       cy="57.259037"
       r="0.1577594" />
    <path
       style="fill:none;stroke:#000000;stroke-width:0.264999;stroke-dasharray:none;stroke-opacity:1"
       d="m 44.654472,65.392248 c -1.51165,-9.290961 6.575777,-8.728636 5.490173,-0.07143"
       id="path8" />
    <path
       style="fill:none;stroke:#000000;stroke-width:0.264999;stroke-dasharray:none;stroke-opacity:1"
       d="m 51.501206,62.286493 c 0.891365,-0.04196 5.694945,-0.200594 5.694945,-0.200594 0,0 -0.264322,-3.436414 -3.069113,-3.491486 -1.558224,-0.0306 -2.978492,0.744912 -2.941506,3.634353 0.05035,3.933129 4.282699,4.231884 6.224918,1.56133"
       id="path9" />
    <path
       style="fill:none;stroke:#000000;stroke-width:0.264999;stroke-dasharray:none;stroke-opacity:1"
       d="m 58.52813,65.373676 c -1.51165,-9.290961 6.575777,-8.728636 5.490173,-0.07143"
       id="path8-2" />
  </g>
</svg>
